<svg xmlns="http://www.w3.org/2000/svg" width="128" height="128" viewBox="0 0 128 128">
  <title>MEDICAL KIT</title>
  <g>
    <rect x="24.912" y="103.758" width="11.953" height="6.65" fill="#9b8e99"/>
    <rect x="91.136" y="103.758" width="11.953" height="6.65" fill="#9b8e99"/>
    <polygon points="73.109 33.751 73.109 24.347 54.891 24.347 54.891 33.751 48.136 33.751 48.136 17.592 79.864 17.592 79.864 33.751 73.109 33.751" fill="#9b8e99"/>
    <path d="M9.859,61.872l5.66-24.257a5,5,0,0,1,4.869-3.864h87.224a5,5,0,0,1,4.869,3.864l5.66,24.257Z" fill="#99e6fc"/>
    <path d="M118.141,75.638,112.481,99.9a5,5,0,0,1-4.869,3.863H20.388A5,5,0,0,1,15.519,99.9L9.859,75.638Z" fill="#99e6fc"/>
    <rect x="6.307" y="61.872" width="115.386" height="13.766" fill="#62dbfb"/>
    <circle cx="64" cy="68.755" r="22.394" fill="#dff6fd"/>
    <polygon points="77.189 64.433 68.322 64.433 68.322 55.566 59.678 55.566 59.678 64.433 50.811 64.433 50.811 73.076 59.678 73.076 59.678 81.943 68.322 81.943 68.322 73.076 77.189 73.076 77.189 64.433" fill="#f07281"/>
    <g>
      <path d="M59.963,102.008h-4.5a1.75,1.75,0,0,0,0,3.5h4.5a1.75,1.75,0,1,0,0-3.5Z"/>
      <path d="M121.693,60.122H119.53l-5.345-22.9A6.723,6.723,0,0,0,107.612,32h-8.2a1.75,1.75,0,0,0,0,3.5h8.2a3.237,3.237,0,0,1,3.165,2.512l5.159,22.109H86.542a24.135,24.135,0,0,0-45.084,0H12.064l5.159-22.109A3.237,3.237,0,0,1,20.388,35.5H90.05a1.75,1.75,0,0,0,0-3.5H81.614V17.592a1.749,1.749,0,0,0-1.75-1.75H48.136a1.749,1.749,0,0,0-1.75,1.75V32h-26a6.723,6.723,0,0,0-6.573,5.217L8.47,60.122H6.307a1.75,1.75,0,0,0-1.75,1.75V75.638a1.751,1.751,0,0,0,1.75,1.75H8.47l5.345,22.9a6.723,6.723,0,0,0,6.573,5.216h2.774v4.9a1.749,1.749,0,0,0,1.75,1.75H36.864a1.749,1.749,0,0,0,1.75-1.75v-4.9h7.613a1.75,1.75,0,0,0,0-3.5H20.388A3.236,3.236,0,0,1,17.223,99.5L12.064,77.388H41.458a24.136,24.136,0,0,0,45.084,0h29.394L110.777,99.5a3.236,3.236,0,0,1-3.165,2.511H69.62a1.75,1.75,0,0,0,0,3.5H89.386v4.9a1.749,1.749,0,0,0,1.75,1.75h11.952a1.749,1.749,0,0,0,1.75-1.75v-4.9h2.774a6.723,6.723,0,0,0,6.573-5.216l5.345-22.9h2.163a1.751,1.751,0,0,0,1.75-1.75V61.872A1.75,1.75,0,0,0,121.693,60.122ZM71.359,32H56.641V26.1H71.359ZM49.886,19.342H78.114V32H74.859V24.347a1.75,1.75,0,0,0-1.75-1.75H54.891a1.75,1.75,0,0,0-1.75,1.75V32H49.886ZM35.114,108.658H26.662v-3.15h8.452Zm66.224,0H92.886v-3.15h8.452ZM8.057,73.888V63.622H40.41a24.035,24.035,0,0,0,0,10.266ZM64,89.4A20.644,20.644,0,1,1,84.644,68.755,20.667,20.667,0,0,1,64,89.4Zm55.943-15.51H87.589a24.035,24.035,0,0,0,0-10.266h32.353Z"/>
      <path d="M77.189,62.683H70.072V55.566a1.751,1.751,0,0,0-1.75-1.75H59.678a1.751,1.751,0,0,0-1.75,1.75v7.117H50.811a1.75,1.75,0,0,0-1.75,1.75v8.643a1.75,1.75,0,0,0,1.75,1.75h7.117v7.117a1.75,1.75,0,0,0,1.75,1.75h8.644a1.75,1.75,0,0,0,1.75-1.75V74.826h7.117a1.75,1.75,0,0,0,1.75-1.75V64.433A1.75,1.75,0,0,0,77.189,62.683Zm-1.75,8.643H68.322a1.749,1.749,0,0,0-1.75,1.75v7.117H61.428V73.076a1.749,1.749,0,0,0-1.75-1.75H52.561V66.183h7.117a1.75,1.75,0,0,0,1.75-1.75V57.316h5.144v7.117a1.75,1.75,0,0,0,1.75,1.75h7.117Z"/>
    </g>
  </g>
</svg>
