<?xml version="1.0" encoding="UTF-8"?>
<!DOCTYPE svg PUBLIC "-//W3C//DTD SVG 1.1//EN" "http://www.w3.org/Graphics/SVG/1.1/DTD/svg11.dtd">
<!-- Creator: CorelDRAW -->
<svg xmlns="http://www.w3.org/2000/svg" xml:space="preserve" width="2048px" height="2048px" style="shape-rendering:geometricPrecision; text-rendering:geometricPrecision; image-rendering:optimizeQuality; fill-rule:evenodd; clip-rule:evenodd"
viewBox="0 0 2048 2048"
 xmlns:xlink="http://www.w3.org/1999/xlink">
 <defs>
  <style type="text/css">
   <![CDATA[
    .fil1 {fill:none}
    .fil0 {fill:#424242;fill-rule:nonzero}
   ]]>
  </style>
 </defs>
 <g id="Layer_x0020_1">
  <metadata id="CorelCorpID_0Corel-Layer"/>
  <g id="_292657912">
   <g>
    <path id="_292658080" class="fil0" d="M1509.37 1158.52c89.256,43.2567 150.62,107.926 188.713,194.595 1.87323,3.30827 3.27402,6.90355 4.10788,10.7244l-0.0401575 0.0389764 88.9453 407.723 -1251.99 0 27.9662 -128.195c42.1465,15.0945 87.9379,19.8839 132.598,14.4449 51.926,-6.32245 103.189,-26.6788 142.892,-61.0949 9.57875,2.55945 19.4847,3.86103 29.4874,3.86103 30.3166,0 59.1957,-11.9693 80.6292,-33.4016 21.4347,-21.4323 33.4028,-50.3126 33.4028,-80.6304 0,-30.3166 -11.9693,-59.1969 -33.4016,-80.6304 -21.4335,-21.4323 -50.3138,-33.4016 -80.6304,-33.4016 -30.3177,0 -59.1981,11.9681 -80.6304,33.4028 -21.4323,21.4335 -33.4016,50.3126 -33.4016,80.6292 0,16.3063 3.45945,32.2276 10.0347,46.8213 -23.4331,16.2685 -51.9898,25.7705 -79.8674,29.165 -33.867,4.12441 -69.1583,-0.309449 -100.411,-14.0622l40.278 -184.631 -0.0413386 -0.0389764c0.83504,-3.82087 2.23701,-7.41615 4.10906,-10.7244 38.0918,-86.6694 99.4583,-151.338 188.713,-194.595 39.0366,-18.9189 83.2075,-33.5528 132.91,-43.9618 39.515,37.4988 118.513,63.1749 209.687,63.4855l1.67126 0.00590552 1.67008 -0.00590552c91.1753,-0.31063 170.172,-25.9866 209.687,-63.4855 49.702,10.4091 93.8729,25.0429 132.91,43.9618z"/>
    <path id="_292658128" class="fil0" d="M1165.11 276.399c109.475,0 208.595,44.9953 280.341,117.736 71.7461,72.743 116.125,173.237 116.125,284.236 0,110.998 -44.3788,211.492 -116.125,284.235 -71.7449,72.7406 -170.863,117.736 -280.341,117.736 -109.478,0 -208.596,-44.9953 -280.343,-117.736 -71.7449,-72.743 -116.125,-173.237 -116.125,-284.235 0,-110.999 44.38,-211.493 116.125,-284.236 71.7473,-72.7406 170.865,-117.736 280.343,-117.736zm304.067 499.576c-58.9229,-19.6701 -112.475,-51.4619 -157.716,-92.6977 -31.3796,-28.6028 -58.7363,-61.7658 -81.091,-98.5926 -25.3524,36.9343 -164.64,155.41 -179.21,127.911 -0.153543,-0.209055 11.0398,-77.5595 10.2496,-92.6481 -13.8614,19.3807 -29.2099,37.5886 -45.8906,54.4607 -42.9662,43.4622 -94.806,77.9989 -152.731,100.78 -0.708662,0.276378 -1.41969,0.531496 -2.13189,0.766536 15.6165,50.1331 42.9437,94.9938 78.7276,131.275 57.7654,58.565 137.574,94.793 225.727,94.793 88.1528,0 167.961,-36.228 225.724,-94.793 35.752,-36.2504 63.0638,-81.0627 78.6863,-131.141 -0.113386,-0.0389764 -0.229134,-0.0755906 -0.343701,-0.113386z"/>
   </g>
   <path id="_292657384" class="fil0" d="M872.057 1404.55c22.6477,0 43.1563,9.18308 58.0028,24.0295 14.8465,14.8465 24.0295,35.3551 24.0295,58.0028 0,22.65 -9.18308,43.1587 -24.0295,58.0028 -14.8465,14.8465 -35.3551,24.0295 -58.0028,24.0295 -13.3335,0 -25.9252,-3.18307 -37.0559,-8.82993 -34.8284,36.6874 -85.3512,59.7437 -139.192,66.2989 -59.6256,7.2626 -123.704,-5.68111 -175.226,-42.7429 -2.3811,-1.7126 -4.73977,-3.48189 -7.06772,-5.29961 -115.348,-90.0981 -82.3229,-198.447 -45.6473,-318.77 22.9606,-75.3272 47.4567,-155.692 33.9307,-236.845 -1.44921,-8.69764 4.42796,-16.9252 13.1256,-18.3744 8.69764,-1.44921 16.9252,4.42796 18.3744,13.1256 14.7343,88.4079 -10.9004,172.512 -34.9299,251.345 -33.3225,109.325 -63.3284,207.769 34.7717,284.395 1.99488,1.55788 4.02048,3.07677 6.06615,4.54843 44.6079,32.0882 100.541,43.239 152.854,36.8681 45.6485,-5.55709 88.2461,-24.4382 117.738,-54.3402 -12.3248,-14.3504 -19.774,-33.0118 -19.774,-53.4107 0,-22.6477 9.18308,-43.1563 24.0295,-58.0028 14.8441,-14.8465 35.3528,-24.0295 58.0028,-24.0295zm12.7524 69.28c-3.26103,-3.26103 -7.77048,-5.27835 -12.7524,-5.27835 -4.98189,0 -9.49253,2.01851 -12.7524,5.27835 -3.26103,3.26103 -5.27835,7.77048 -5.27835,12.7524 0,4.98189 2.01851,9.49253 5.27835,12.7524 3.25985,3.25985 7.77048,5.27835 12.7524,5.27835 4.98189,0 9.49135,-2.01732 12.7524,-5.27835 3.25985,-3.25985 5.27835,-7.77048 5.27835,-12.7524 0,-4.98189 -2.01732,-9.49135 -5.27835,-12.7524z"/>
   <path id="_292657288" class="fil0" d="M526.107 514.275c-12.3201,2.10118 -20.6043,13.7941 -18.5032,26.113 2.10118,12.3189 13.7941,20.6032 26.1142,18.502l28.5083 -12.3402c4.22244,-0.735827 8.5819,-0.827953 12.9036,-0.35315 9.7819,1.07599 19.3677,5.01142 26.9079,10.9453 6.86812,5.40473 11.8158,12.3496 13.1492,20.002l15.75 -2.68701 -15.7618 2.74843 0.0874016 0.461811c0.341339,2.18858 0.405118,4.43622 0.154725,6.72048l-31.154 283.234c-4.05945,36.9059 -19.6382,64.9477 -40.6051,82.48 -13.2201,11.0551 -28.5697,17.9256 -44.4284,20.1567 -15.8303,2.22756 -32.2311,-0.10748 -47.5867,-7.44804 -23.4744,-11.2252 -44.8181,-34.1445 -58.7682,-70.3725l-102.391 -265.91c-0.748819,-1.94646 -1.23898,-3.89764 -1.48937,-5.83111 -1.02992,-7.94174 1.94646,-16.0618 7.32756,-23.1437 6.02835,-7.93465 14.8583,-14.4402 24.6721,-18.2185 3.87402,-1.49055 7.87796,-2.54055 11.889,-3.06024l29.4945 1.52599c12.5539,-1.5874 21.4465,-13.0547 19.8579,-25.6075 -1.5874,-12.5539 -13.0536,-21.4465 -25.6075,-19.8591l-27.7441 12.3154c-6.55985,0.850394 -13.0453,2.54173 -19.2638,4.93583 -15.2717,5.87953 -29.1107,16.1327 -38.6729,28.7185 -10.2095,13.4362 -15.7547,29.6114 -13.578,46.3926 0.570473,4.39961 1.67599,8.81694 3.36496,13.2059l102.391 265.91c17.1591,44.5642 44.3929,73.2249 74.7674,87.7489 21.2445,10.1563 43.891,13.3925 65.7119,10.3228 21.7937,-3.06614 42.7158,-12.365 60.5528,-27.2811 26.9032,-22.4965 46.8178,-57.7878 51.8563,-103.605l31.154 -283.234c0.583465,-5.3067 0.432284,-10.4504 -0.367323,-15.3827 -0.0295276,-0.223229 -0.0625985,-0.447638 -0.101575,-0.672048l-0.011811 0.00236221 0 -0.00354331 -0.0106299 0.00236221c-2.79921,-15.9543 -12.1323,-29.6551 -24.8882,-39.6922 -12.0969,-9.51969 -27.515,-15.8374 -43.2827,-17.5713 -7.22835,-0.794883 -14.5406,-0.636615 -21.6532,0.603544l-30.7453 -0.774804z"/>
   <path id="_292657816" class="fil0" d="M631.889 872.685c1.86378,-17.5347 -10.8402,-33.2622 -28.3748,-35.126 -17.5347,-1.86378 -33.2622,10.8402 -35.126,28.3748 -3.56929,32.4496 -16.9807,56.8666 -34.9807,71.9186 -10.911,9.12402 -23.4732,14.7803 -36.365,16.5933 -12.835,1.80591 -26.1142,-0.0779528 -38.524,-6.01063 -20.0244,-9.5752 -38.4237,-29.6244 -50.7685,-61.6855 -6.28229,-16.4291 -24.6957,-24.6567 -41.1248,-18.3744 -16.4291,6.28229 -24.6567,24.6957 -18.3744,41.1248 18.763,48.7311 48.9414,80.2619 82.767,96.4359 24.1902,11.5654 49.9559,15.2516 74.7745,11.7602 24.7606,-3.48307 48.4713,-13.9984 68.6162,-30.8445 29.8701,-24.978 51.952,-63.8941 57.4808,-114.167z"/>
  </g>
 </g>
 <rect class="fil1" width="2048" height="2048"/>
</svg>
