<?xml version="1.0" encoding="UTF-8"?>
<!DOCTYPE svg PUBLIC "-//W3C//DTD SVG 1.1//EN" "http://www.w3.org/Graphics/SVG/1.1/DTD/svg11.dtd">
<!-- Creator: CorelDRAW -->
<svg xmlns="http://www.w3.org/2000/svg" xml:space="preserve" width="6.82666in" height="6.82666in" style="shape-rendering:geometricPrecision; text-rendering:geometricPrecision; image-rendering:optimizeQuality; fill-rule:evenodd; clip-rule:evenodd"
viewBox="0 0 6.82666 6.82666"
 xmlns:xlink="http://www.w3.org/1999/xlink">
 <defs>
  <style type="text/css">
   <![CDATA[
    .fil0 {fill:none}
    .fil8 {fill:#8D8E8E}
    .fil3 {fill:#424343;fill-rule:nonzero}
    .fil1 {fill:#7A7A7A;fill-rule:nonzero}
    .fil9 {fill:#858585;fill-rule:nonzero}
    .fil5 {fill:#8D8E8E;fill-rule:nonzero}
    .fil7 {fill:#929292;fill-rule:nonzero}
    .fil4 {fill:#979797;fill-rule:nonzero}
    .fil6 {fill:#9A9B9B;fill-rule:nonzero}
    .fil2 {fill:#A2A2A2;fill-rule:nonzero}
   ]]>
  </style>
 </defs>
 <g id="Layer_x0020_1">
  <metadata id="CorelCorpID_0Corel-Layer"/>
  <g id="_275273016">
   <rect id="_275275104" class="fil0" width="6.82666" height="6.82666"/>
   <g>
    <path id="_275274864" class="fil1" d="M3.62642 2.93089c0.0163346,-0.056378 0.153189,-0.226535 0.221937,-0.223543 0.056378,0.0163346 0.114882,0.235012 0.0985472,0.29139 -0.027811,0.0960157 -0.0881457,0.150976 -0.134413,0.209776 -0.130846,0.16628 -0.301524,0.227992 -0.48637,0.287043 -0.167622,0.0535472 -0.275602,0.0620551 -0.275602,0.207894 0,0.198504 0.148626,0.177866 0.389555,0.202217 0.328047,0.0331575 0.654193,0.111264 0.664965,0.47772 0.0108898,0.370472 -0.326244,0.405657 -0.660362,0.469795 -0.186488,0.0357992 -0.404555,0.0784843 -0.486854,0.17098 -0.0262441,0.0294921 -0.0420118,0.0554646 -0.0491417,0.0780945 -0.0989528,0.230748 0.288315,0.324201 0.442469,0.368791 0.398839,0.115374 0.527614,0.282835 0.666236,0.560555 -0.204894,-0.263091 -0.19085,-0.346827 -0.757142,-0.484024 -0.0764094,-0.0185118 -0.149563,-0.0362402 -0.21239,-0.0560315 -0.0794094,-0.0250197 -0.152929,-0.063189 -0.208512,-0.112646 -0.0434291,-0.0386457 -0.0766772,-0.0846614 -0.0951102,-0.137622 -0.0194882,-0.0559882 -0.0217795,-0.116646 -0.00156299,-0.180811 0.0160787,-0.0510394 0.0462165,-0.103516 0.0933071,-0.156433 0.130177,-0.146311 0.354264,-0.189327 0.576224,-0.231933 0.244602,-0.0469528 0.485906,-0.0932795 0.480335,-0.282882 -0.00527165,-0.179441 -0.238602,-0.203028 -0.473295,-0.226748 -0.336894,-0.0340472 -0.675811,-0.0683031 -0.675811,-0.459024 0,-0.300685 0.215665,-0.369587 0.462972,-0.448591 0.158752,-0.0507165 0.310705,-0.020063 0.392756,-0.153012 0.0210472,-0.0340984 0.0119567,-0.11811 0.0272638,-0.170957z"/>
    <path id="_275274840" class="fil2" d="M0.98715 1.71796c0.315244,0.0596102 0.629728,0.0917126 0.943339,0.0928622 0.3165,0.00116142 0.633189,-0.0289724 0.950051,-0.093878 0.0267441,-0.00547244 0.0529449,-0.00754724 0.0784291,-0.00659843 0.0969409,0.00361417 0.180654,0.049374 0.243937,0.116866 0.0587283,0.062622 0.100244,0.145236 0.117386,0.228945 0.00219291,0.0107165 0.004,0.0214764 0.00540157,0.0322441l0.0876378 0.0468386 0.0876378 -0.0468386c0.00140157,-0.0107717 0.00320866,-0.0215315 0.00540157,-0.032248 0.0171417,-0.0837087 0.0586575,-0.166315 0.117386,-0.228945 0.0632913,-0.0674921 0.146996,-0.113248 0.243937,-0.116862 0.0254803,-0.000952756 0.0516811,0.00112205 0.0784291,0.00659843 0.316862,0.0649055 0.633551,0.0950394 0.950051,0.093878 0.316012,-0.00115748 0.632913,-0.0337402 0.950583,-0.0942323l-5.11811e-005 -0.00026378c0.0578701,-0.0110236 0.11372,0.0269528 0.124744,0.0848228 0.00650394,0.0341496 -0.00405906,0.0675945 -0.0257008,0.0915433 -0.0509055,0.0656457 -0.104402,0.126866 -0.160492,0.18361 -0.00901181,0.00911811 -0.0180945,0.018122 -0.0272441,0.0270157 0.00877953,0.00680315 0.017122,0.0141496 0.0249646,0.0219921 0.0472756,0.0472717 0.076622,0.112575 0.076622,0.184496 0,0.0719173 -0.0293465,0.137228 -0.076622,0.184504 -0.0472717,0.0472756 -0.112575,0.076622 -0.184496,0.076622l-0.031878 0c0.00937402,0.0426457 0.00820866,0.0879606 -0.00531102,0.131882 -0.00172047,0.0124921 -0.00490551,0.0246575 -0.00940945,0.0364528 -0.0189843,0.0496929 -0.0611299,0.0884724 -0.111583,0.113047 -0.0417913,0.0203504 -0.0919173,0.0322323 -0.137783,0.0322323 -0.0289449,0 -0.0575906,-0.00462598 -0.0837283,-0.0146142l-0.251929 -0.0962323c-0.00941339,0.0414173 -0.0290354,0.0810512 -0.0591142,0.11485l9.44882e-005 8.66142e-005c-0.00194882,0.00219291 -0.00397638,0.00427953 -0.00605906,0.00627165 -0.0540866,0.0531339 -0.116524,0.0716339 -0.180909,0.0702638 -0.0537874,-0.00114173 -0.105311,-0.0171654 -0.15202,-0.0368346l-0.799902 -0.336854 -0.286488 0.153102 0.00019685 0.000366142c-0.0342087,0.0182795 -0.0739094,0.0160197 -0.104969,-0.00248819l-0.317343 -0.152091 -0.802535 0.337965c-0.0505079,0.0212677 -0.103193,0.036563 -0.156693,0.036874 -0.0646929,0.000366142 -0.125555,-0.0195906 -0.178028,-0.0720709 -0.0033622,-0.0033622 0.00245669,0.00231102 -0.00372835,-0.00419685 -0.0314173,-0.032937 -0.0511693,-0.072937 -0.0602244,-0.114992l-0.251264 0.0959803c-0.115441,0.0440984 -0.213118,0.00802362 -0.277185,-0.0620866 -0.0238976,-0.0261496 -0.0423465,-0.0566496 -0.0545039,-0.0889094 -0.0120787,-0.0320551 -0.0183937,-0.0668346 -0.0181063,-0.101768 0.000125984,-0.0155315 0.00151181,-0.0310118 0.00420079,-0.0462362l-0.0340984 0c-0.0719134,0 -0.137224,-0.0293465 -0.184496,-0.076622 -0.0472756,-0.0472756 -0.076622,-0.112583 -0.076622,-0.1845 0,-0.0719173 0.0293465,-0.137228 0.0766181,-0.1845 0.00784252,-0.00784252 0.016185,-0.015189 0.0249685,-0.0219921 -0.00914961,-0.0088937 -0.0182323,-0.0178976 -0.0272441,-0.0270157 -0.0579606,-0.0586378 -0.113154,-0.122051 -0.165575,-0.190193l0.0841654 -0.065 -0.0845433 0.0650394c-0.0359173,-0.046689 -0.027185,-0.113665 0.0195039,-0.149583 0.0272283,-0.0209449 0.0613504,-0.0267008 0.0921929,-0.0186063z"/>
    <path id="_275275056" class="fil3" d="M3.82952 2.80721c-0.00900787,0.024122 -0.0403071,0.0986417 -0.0306378,0.113472 -0.00362598,0.00845276 -0.0134252,0.0123661 -0.021878,0.00874016 -0.00845276,-0.00362992 -0.0123661,-0.0134252 -0.00874016,-0.021878 0.0187756,-0.015248 0.0459094,-0.103988 0.0612559,-0.100335z"/>
    <g>
     <polygon id="_275274792" class="fil4" points="3.65333,1.6527 3.41333,1.54603 3.17333,1.6527 3.41333,6.03369 "/>
     <path id="_275274960" class="fil5" d="M3.41333 0.792969c0.132535,0 0.252543,0.0537362 0.339406,0.140598 0.0868622,0.0868622 0.140598,0.20687 0.140598,0.339406 0,0.132535 -0.0537362,0.252543 -0.140598,0.339406 -0.0868622,0.0868622 -0.20687,0.140598 -0.339406,0.140598 -0.132535,0 -0.252543,-0.0537362 -0.339406,-0.140598 -0.0868622,-0.0868622 -0.140598,-0.20687 -0.140598,-0.339406 0,-0.132535 0.0537362,-0.252543 0.140598,-0.339406 0.0868622,-0.0868622 0.20687,-0.140598 0.339406,-0.140598z"/>
    </g>
    <g>
     <polygon id="_275274240" class="fil6" points="3.40891,1.54799 3.17333,1.6527 3.40891,5.95306 "/>
     <path id="_275274528" class="fil7" d="M3.40891 1.75295c-0.130783,-0.0011811 -0.249091,-0.0546732 -0.334988,-0.140571 -0.0868622,-0.0868622 -0.140598,-0.20687 -0.140598,-0.339406 0,-0.132535 0.0537362,-0.252543 0.140598,-0.339406 0.0858976,-0.0858976 0.204205,-0.13939 0.334988,-0.140571l0 0.959953z"/>
    </g>
    <path id="_275274408" class="fil8" d="M2.77612 2.03979c-0.530965,0.12637 -1.02109,0.178697 -1.56812,0.102063 0.646217,0.0407913 0.964551,-0.0251102 1.56812,-0.102063z"/>
    <path id="_275274336" class="fil8" d="M4.01321 2.03979c0.530965,0.12637 1.02109,0.178697 1.56812,0.102063 -0.646217,0.0407913 -0.964551,-0.0251102 -1.56812,-0.102063z"/>
    <path id="_275274168" class="fil8" d="M2.808 2.20594c-0.481957,0.198646 -0.935283,0.318311 -1.45897,0.31813 0.612106,-0.0490472 0.902354,-0.158378 1.45897,-0.31813z"/>
    <path id="_275273472" class="fil8" d="M3.98133 2.20594c0.481957,0.198646 0.935283,0.318311 1.45897,0.31813 -0.612106,-0.0490472 -0.902354,-0.158378 -1.45897,-0.31813z"/>
    <path id="_275273736" class="fil8" d="M2.91625 2.30073c-0.329937,0.241102 -0.647862,0.404441 -1.03076,0.462417 0.441984,-0.11428 0.641843,-0.249752 1.03076,-0.462417z"/>
    <path id="_275273856" class="fil8" d="M3.87309 2.30073c0.329937,0.241102 0.647862,0.404441 1.03076,0.462417 -0.441984,-0.11428 -0.641843,-0.249752 -1.03076,-0.462417z"/>
    <path id="_275273808" class="fil9" d="M3.20741 2.93089c-0.0163346,-0.056378 -0.153189,-0.226535 -0.221937,-0.223543 -0.056378,0.0163346 -0.114882,0.235012 -0.0985472,0.29139 0.027811,0.0960157 0.0881457,0.150976 0.134413,0.209776 0.130846,0.16628 0.301524,0.227992 0.48637,0.287043 0.167622,0.0535472 0.275602,0.0620551 0.275602,0.207894 0,0.198504 -0.148626,0.177866 -0.389555,0.202217 -0.328047,0.0331575 -0.654193,0.111264 -0.664965,0.47772 -0.0108898,0.370472 0.326244,0.405657 0.660362,0.469795 0.186488,0.0357992 0.404555,0.0784843 0.486854,0.17098 0.0262441,0.0294921 0.0420118,0.0554646 0.0491417,0.0780945 0.0989528,0.230748 -0.288315,0.324201 -0.442469,0.368791 -0.398839,0.115374 -0.527614,0.282835 -0.666236,0.560555 0.204894,-0.263091 0.19085,-0.346827 0.757142,-0.484024 0.0764094,-0.0185118 0.149563,-0.0362402 0.21239,-0.0560315 0.0794094,-0.0250197 0.152929,-0.063189 0.208512,-0.112646 0.0434291,-0.0386457 0.0766772,-0.0846614 0.0951102,-0.137622 0.0194882,-0.0559882 0.0217795,-0.116646 0.00156299,-0.180811 -0.0160787,-0.0510394 -0.0462165,-0.103516 -0.0933071,-0.156433 -0.130177,-0.146311 -0.354264,-0.189327 -0.576224,-0.231933 -0.244602,-0.0469528 -0.485906,-0.0932795 -0.480335,-0.282882 0.00527165,-0.179441 0.238602,-0.203028 0.473295,-0.226748 0.336894,-0.0340472 0.675811,-0.0683031 0.675811,-0.459024 0,-0.300685 -0.215665,-0.369587 -0.462972,-0.448591 -0.158752,-0.0507165 -0.310705,-0.020063 -0.392756,-0.153012 -0.0210472,-0.0340984 -0.0119567,-0.11811 -0.0272638,-0.170957z"/>
    <path id="_275273592" class="fil3" d="M3.0043 2.80721c0.00900787,0.024122 0.0403071,0.0986417 0.0306378,0.113472 0.00362598,0.00845276 0.0134252,0.0123661 0.021878,0.00874016 0.00845276,-0.00362992 0.0123661,-0.0134252 0.00874016,-0.021878 -0.0187756,-0.015248 -0.0459094,-0.103988 -0.0612559,-0.100335z"/>
   </g>
  </g>
 </g>
</svg>
