<svg xmlns="http://www.w3.org/2000/svg" width="128" height="128" viewBox="0 0 128 128">
  <title>MEDICAL TOOLS</title>
  <g>
    <rect x="30.029" y="53.199" width="11.663" height="55.852" rx="5.471" fill="#ffc26f"/>
    <path d="M35.861,54.949a1.751,1.751,0,0,1-1.75-1.75V39.906a1.75,1.75,0,0,1,3.5,0V53.2A1.751,1.751,0,0,1,35.861,54.949Z" fill="#4453e2"/>
    <rect x="60.871" y="53.199" width="11.663" height="55.852" rx="5.471" fill="#f89068"/>
    <path d="M66.7,41.656a12.228,12.228,0,1,1,7.742-21.694,1.75,1.75,0,1,1-2.216,2.708A8.729,8.729,0,1,0,66.7,38.156a1.75,1.75,0,0,1,0,3.5Z" fill="#4453e2"/>
    <path d="M66.7,54.949a1.75,1.75,0,0,1-1.75-1.75V39.906a1.75,1.75,0,0,1,3.5,0V53.2A1.75,1.75,0,0,1,66.7,54.949Z" fill="#4453e2"/>
    <rect x="90.191" y="53.199" width="11.663" height="55.852" rx="5.471" fill="#ffc26f"/>
    <path d="M96.022,54.949a1.751,1.751,0,0,1-1.75-1.75V39.906a1.75,1.75,0,1,1,3.5,0V53.2A1.75,1.75,0,0,1,96.022,54.949Z" fill="#4453e2"/>
    <path d="M96.022,41.656a1.746,1.746,0,0,1-1.237-.512L84.307,30.666a1.749,1.749,0,0,1,0-2.475L94.785,17.712a1.75,1.75,0,1,1,2.475,2.475l-9.241,9.241,9.241,9.241a1.75,1.75,0,0,1-1.238,2.987Z" fill="#4453e2"/>
    <circle cx="35.861" cy="29.428" r="10.478" fill="#37d4e9"/>
  </g>
  <path d="M28.279,77.25v-1.5a1.75,1.75,0,0,1,3.5,0v1.5a1.75,1.75,0,0,1-3.5,0Zm9.332-35.734v10.07a7.23,7.23,0,0,1,5.831,7.083v44.91a7.229,7.229,0,0,1-7.22,7.221H35.5a7.229,7.229,0,0,1-7.221-7.221V86.5a1.75,1.75,0,0,1,3.5,0v17.079A3.725,3.725,0,0,0,35.5,107.3h.722a3.725,3.725,0,0,0,3.72-3.721V58.669a3.724,3.724,0,0,0-3.72-3.72H35.5a3.725,3.725,0,0,0-3.721,3.72V66a1.75,1.75,0,0,1-3.5,0V58.669a7.23,7.23,0,0,1,5.832-7.083V41.516a12.228,12.228,0,1,1,3.5,0Zm6.978-12.088a8.728,8.728,0,1,0-8.728,8.728A8.737,8.737,0,0,0,44.589,29.428ZM66.7,20.7a8.745,8.745,0,0,1,5.526,1.97,1.75,1.75,0,1,0,2.216-2.708,12.224,12.224,0,1,0-9.492,21.554v10.07a7.231,7.231,0,0,0-5.831,7.083v44.91a7.229,7.229,0,0,0,7.221,7.221h.721a7.229,7.229,0,0,0,7.221-7.221V94a1.75,1.75,0,0,0-3.5,0v9.579a3.725,3.725,0,0,1-3.721,3.721h-.721a3.725,3.725,0,0,1-3.721-3.721V58.669a3.725,3.725,0,0,1,3.721-3.72h.721a3.725,3.725,0,0,1,3.721,3.72V84.25a1.75,1.75,0,0,0,3.5,0V58.669a7.23,7.23,0,0,0-5.832-7.083V39.906a1.75,1.75,0,0,0-1.75-1.75,8.728,8.728,0,0,1,0-17.456ZM90.19,77.5a1.75,1.75,0,0,0,1.75-1.75v-2.4a1.75,1.75,0,0,0-3.5,0v2.4A1.751,1.751,0,0,0,90.19,77.5Zm7.07-59.788a1.751,1.751,0,0,0-2.475,0L84.307,28.191a1.749,1.749,0,0,0,0,2.475l9.965,9.965V51.586a7.231,7.231,0,0,0-5.832,7.083V64a1.75,1.75,0,0,0,3.5,0V58.669a3.725,3.725,0,0,1,3.721-3.72h.722a3.725,3.725,0,0,1,3.721,3.72v44.91a3.725,3.725,0,0,1-3.721,3.721h-.722a3.725,3.725,0,0,1-3.721-3.721V85a1.75,1.75,0,0,0-3.5,0v18.579a7.229,7.229,0,0,0,7.221,7.221h.722a7.229,7.229,0,0,0,7.221-7.221V58.669a7.231,7.231,0,0,0-5.832-7.083V39.906a1.787,1.787,0,0,0-.034-.342c-.011-.053-.03-.1-.045-.153s-.031-.117-.054-.174a1.664,1.664,0,0,0-.091-.172,1.343,1.343,0,0,0-.07-.129,1.722,1.722,0,0,0-.22-.269l-9.239-9.239,9.241-9.241A1.751,1.751,0,0,0,97.26,17.712Z" fill="#13134c"/>
</svg>
